<svg viewBox="0 0 182.28 61.8" xmlns="http://www.w3.org/2000/svg"><g fill="#99999f"><rect height="12.98" rx="2.16" width="12.98" x="37.08" y="12.21"/><rect height="12.98" rx="2.16" width="12.98" x="24.72" y="24.41"/><rect height="12.98" rx="2.16" width="12.98" x="12.36" y="36.62"/><rect height="12.98" rx="2.16" width="12.98" y="48.82"/><rect height="12.98" rx="2.16" width="12.98" x="49.44"/><rect height="12.98" rx="2.16" width="12.98" x="37.08" y="36.62"/><rect height="12.98" rx="2.16" width="12.98" x="12.36" y="12.21"/><rect height="12.98" rx="2.16" width="12.98"/><rect height="12.98" rx="2.16" width="12.98" x="49.44" y="48.82"/><g transform="translate(-210.84 -604.9)"><path d="m296.19 604.9h-14.54a2.05 2.05 0 0 0 -2 2.05v8.25a2.05 2.05 0 0 0 2 2.06h4.13v37.08h-4.13a2.05 2.05 0 0 0 -2 2v8.25a2.05 2.05 0 0 0 2 2.06h14.54a2 2 0 0 0 1.55-.62 2.13 2.13 0 0 0 .57-1.5v-57.53a2 2 0 0 0 -2.12-2.12z"/><path d="m363.22 604.9h-6.88a2.83 2.83 0 0 0 -2.65 1.68l-17.22 31.78-17-31.78a2.72 2.72 0 0 0 -2.65-1.68h-7a2.12 2.12 0 0 0 -2.21 2.21v57.47a2 2 0 0 0 .62 1.54 2.21 2.21 0 0 0 1.59.58h7.42a2 2 0 0 0 1.54-.62 2.13 2.13 0 0 0 .58-1.5v-38.23l12.35 23.57a3.41 3.41 0 0 0 3 1.94h3.62a3.41 3.41 0 0 0 3-1.94l12.36-23.57v38.23a2 2 0 0 0 .62 1.5 2 2 0 0 0 1.5.62h7.41a2.21 2.21 0 0 0 1.59-.58 2 2 0 0 0 .62-1.54v-57.47a2.12 2.12 0 0 0 -2.21-2.21z"/><path d="m391.07 617.26a2.05 2.05 0 0 0 2.05-2.06v-8.2a2.05 2.05 0 0 0 -2.05-2.05h-14.54a2.13 2.13 0 0 0 -1.5.57 2 2 0 0 0 -.62 1.55v57.56a2 2 0 0 0 .62 1.5 2 2 0 0 0 1.5.62h14.54a2.05 2.05 0 0 0 2.05-2.06v-8.25a2.05 2.05 0 0 0 -2.05-2h-4.13v-37.18z"/></g></g></svg>