<?xml version="1.0" encoding="utf-8"?>
<!-- Generator: Adobe Illustrator 25.4.1, SVG Export Plug-In . SVG Version: 6.00 Build 0)  -->
<svg version="1.1" id="Layer_1" xmlns="http://www.w3.org/2000/svg" xmlns:xlink="http://www.w3.org/1999/xlink" x="0px" y="0px"
	 viewBox="0 0 45 35" style="enable-background:new 0 0 45 35;" xml:space="preserve">
<style type="text/css">
	.st0{fill:#FFFFFF;stroke:#000000;stroke-width:2;stroke-miterlimit:10;}
</style>
<rect x="-455" width="45" height="35"/>
<rect x="-390" width="45" height="35"/>
<rect x="-442.7" y="2.5" class="st0" width="20.4" height="15"/>
<rect x="-387.9" y="2.5" class="st0" width="40.9" height="30.1"/>
<rect x="-442.7" y="17.5" class="st0" width="20.4" height="15"/>
<rect x="-325" width="45" height="35"/>
<rect x="-322.9" y="10" class="st0" width="20.4" height="15"/>
<rect x="-302.5" y="10" class="st0" width="20.4" height="15"/>
<rect x="-260" width="45" height="35"/>
<rect x="-257.9" y="2.5" class="st0" width="20.4" height="15"/>
<rect x="-237.5" y="2.5" class="st0" width="20.4" height="15"/>
<rect x="-247.7" y="17.5" class="st0" width="20.4" height="15"/>
<rect x="-195" width="45" height="35"/>
<rect x="-172.5" y="17.5" transform="matrix(-1 -1.224647e-16 1.224647e-16 -1 -324.62 50)" class="st0" width="20.4" height="15"/>
<rect x="-192.9" y="17.5" transform="matrix(-1 -1.224647e-16 1.224647e-16 -1 -365.38 50)" class="st0" width="20.4" height="15"/>
<rect x="-182.7" y="2.5" transform="matrix(-1 -1.224647e-16 1.224647e-16 -1 -345 20)" class="st0" width="20.4" height="15"/>
<rect x="-130" width="45" height="35"/>
<rect x="-127.9" y="2.5" class="st0" width="20.4" height="15"/>
<rect x="-107.5" y="2.5" class="st0" width="20.4" height="30"/>
<rect x="-127.9" y="17.5" class="st0" width="20.4" height="15"/>
<rect x="-65" width="45" height="35"/>
<rect x="-42.5" y="17.5" transform="matrix(-1 -1.224647e-16 1.224647e-16 -1 -64.62 50)" class="st0" width="20.4" height="15"/>
<rect x="-62.9" y="2.5" transform="matrix(-1 -1.224647e-16 1.224647e-16 -1 -105.38 35)" class="st0" width="20.4" height="30"/>
<rect x="-42.5" y="2.5" transform="matrix(-1 -1.224647e-16 1.224647e-16 -1 -64.62 20)" class="st0" width="20.4" height="15"/>
<rect width="45" height="35"/>
<rect x="15" y="12" class="st0" width="15" height="11"/>
<rect x="30" y="12" class="st0" width="15" height="11"/>
<rect y="12" class="st0" width="15" height="11"/>
<rect x="65" width="45" height="35"/>
<rect x="80.7" y="2.5" class="st0" width="13.6" height="30"/>
<rect x="94.3" y="2.5" class="st0" width="13.6" height="30"/>
<rect x="67.1" y="2.5" class="st0" width="13.6" height="30"/>
<rect x="130" width="45" height="35"/>
<rect x="152.5" y="17.5" transform="matrix(-1 -1.224647e-16 1.224647e-16 -1 325.38 50)" class="st0" width="20.4" height="15"/>
<rect x="152.5" y="2.5" transform="matrix(-1 -1.224647e-16 1.224647e-16 -1 325.38 20)" class="st0" width="20.4" height="15"/>
<rect x="132.1" y="17.5" transform="matrix(-1 -1.224647e-16 1.224647e-16 -1 284.62 50)" class="st0" width="20.4" height="15"/>
<rect x="132.1" y="2.5" transform="matrix(-1 -1.224647e-16 1.224647e-16 -1 284.62 20)" class="st0" width="20.4" height="15"/>
<rect x="195" width="45" height="35"/>
<rect x="207.3" y="2.5" class="st0" width="10.2" height="30"/>
<rect x="217.5" y="2.5" class="st0" width="10.2" height="30"/>
<rect x="227.7" y="2.5" class="st0" width="10.2" height="30"/>
<rect x="197.1" y="2.5" class="st0" width="10.2" height="30"/>
</svg>
