<svg width="47" height="26" viewBox="0 0 47 26" fill="none" xmlns="http://www.w3.org/2000/svg">
<path d="M18.3525 20C18.2205 20 18.1065 19.958 18.0105 19.874C17.9265 19.79 17.8845 19.682 17.8845 19.55V18.272C17.8845 17.912 18.0345 17.618 18.3345 17.39L20.2065 15.554C21.2985 14.714 22.1265 14.06 22.6905 13.592C23.2545 13.124 23.6805 12.698 23.9685 12.314C24.2565 11.93 24.4005 11.564 24.4005 11.216C24.4005 10.268 23.9325 9.794 22.9965 9.794C22.5045 9.794 22.1265 9.944 21.8625 10.244C21.5985 10.532 21.4245 10.898 21.3405 11.342C21.2685 11.618 21.0645 11.756 20.7285 11.756H18.4785C18.3705 11.756 18.2805 11.72 18.2085 11.648C18.1365 11.576 18.1005 11.486 18.1005 11.378C18.1245 10.61 18.3345 9.908 18.7305 9.272C19.1385 8.624 19.7085 8.114 20.4405 7.742C21.1845 7.358 22.0365 7.166 22.9965 7.166C24.0045 7.166 24.8685 7.328 25.5885 7.652C26.3085 7.976 26.8545 8.432 27.2265 9.02C27.5985 9.608 27.7845 10.292 27.7845 11.072C27.7845 11.912 27.5205 12.68 26.9925 13.376C26.4765 14.06 25.6845 14.804 24.6165 15.608L22.9605 17.282H27.5865C27.7185 17.282 27.8265 17.324 27.9105 17.408C28.0065 17.492 28.0545 17.6 28.0545 17.732V19.55C28.0545 19.682 28.0065 19.79 27.9105 19.874C27.8265 19.958 27.7185 20 27.5865 20H18.3525Z" fill="white"/>
<rect x="1" y="1" width="45" height="23.5322" rx="4" stroke="white" stroke-width="2"/>
</svg>
