<svg width="47" height="26" viewBox="0 0 47 26" fill="none" xmlns="http://www.w3.org/2000/svg">
<path d="M24.3584 20C24.2384 20 24.1304 19.958 24.0344 19.874C23.9504 19.778 23.9084 19.67 23.9084 19.55V17.516H18.3104C18.1784 17.516 18.0704 17.474 17.9864 17.39C17.9024 17.306 17.8604 17.198 17.8604 17.066V15.356C17.8604 15.176 17.9264 14.99 18.0584 14.798L23.2964 7.706C23.4644 7.502 23.6864 7.4 23.9624 7.4H26.5904C26.7224 7.4 26.8304 7.442 26.9144 7.526C26.9984 7.61 27.0404 7.718 27.0404 7.85V14.834H28.6244C28.7684 14.834 28.8824 14.882 28.9664 14.978C29.0504 15.062 29.0924 15.164 29.0924 15.284V17.066C29.0924 17.198 29.0504 17.306 28.9664 17.39C28.8824 17.474 28.7744 17.516 28.6424 17.516H27.0404V19.55C27.0404 19.67 26.9984 19.778 26.9144 19.874C26.8304 19.958 26.7224 20 26.5904 20H24.3584ZM23.9804 14.96V10.712L20.9564 14.96H23.9804Z" fill="white"/>
<rect x="1" y="1" width="45" height="23.5322" rx="4" stroke="white" stroke-width="2"/>
</svg>
