<svg width="47" height="26" viewBox="0 0 47 26" fill="none" xmlns="http://www.w3.org/2000/svg">
<path d="M22.9174 20.18C21.7534 20.18 20.7754 20 19.9834 19.64C19.2034 19.28 18.6214 18.836 18.2374 18.308C17.8654 17.768 17.6674 17.228 17.6434 16.688C17.6434 16.58 17.6794 16.49 17.7514 16.418C17.8354 16.346 17.9314 16.31 18.0394 16.31H20.3974C20.5294 16.31 20.6374 16.334 20.7214 16.382C20.8054 16.43 20.8834 16.52 20.9554 16.652C21.1954 17.276 21.8494 17.588 22.9174 17.588C23.5294 17.588 24.0034 17.45 24.3394 17.174C24.6874 16.886 24.8614 16.496 24.8614 16.004C24.8614 15.044 24.2374 14.564 22.9894 14.564H20.9914C20.8714 14.564 20.7634 14.522 20.6674 14.438C20.5834 14.342 20.5414 14.234 20.5414 14.114V13.106C20.5414 12.842 20.6374 12.638 20.8294 12.494L23.7814 9.992H18.7774C18.6574 9.992 18.5494 9.95 18.4534 9.866C18.3694 9.77 18.3274 9.662 18.3274 9.542V7.85C18.3274 7.718 18.3694 7.61 18.4534 7.526C18.5494 7.442 18.6574 7.4 18.7774 7.4H27.0574C27.1894 7.4 27.2974 7.442 27.3814 7.526C27.4774 7.61 27.5254 7.718 27.5254 7.85V9.38C27.5254 9.608 27.4294 9.806 27.2374 9.974L24.5014 12.512L24.6274 12.548C25.7314 12.692 26.6014 13.064 27.2374 13.664C27.8854 14.252 28.2094 15.098 28.2094 16.202C28.2094 17.006 27.9814 17.708 27.5254 18.308C27.0694 18.908 26.4394 19.37 25.6354 19.694C24.8314 20.018 23.9254 20.18 22.9174 20.18Z" fill="white"/>
<rect x="1" y="1" width="45" height="23.5322" rx="4" stroke="white" stroke-width="2"/>
</svg>
