<svg width="47" height="26" viewBox="0 0 47 26" fill="none" xmlns="http://www.w3.org/2000/svg">
<path d="M24.0124 20C23.8924 20 23.7844 19.958 23.6884 19.874C23.6044 19.778 23.5624 19.67 23.5624 19.55V10.982L21.0964 12.872C21.0124 12.944 20.9224 12.98 20.8264 12.98C20.6944 12.98 20.5744 12.908 20.4664 12.764L19.4044 11.378C19.3444 11.282 19.3144 11.192 19.3144 11.108C19.3144 10.94 19.3864 10.814 19.5304 10.73L23.6704 7.526C23.8024 7.442 23.9464 7.4 24.1024 7.4H26.3524C26.4844 7.4 26.5924 7.442 26.6764 7.526C26.7604 7.61 26.8024 7.718 26.8024 7.85V19.55C26.8024 19.67 26.7604 19.778 26.6764 19.874C26.5924 19.958 26.4844 20 26.3524 20H24.0124Z" fill="white"/>
<rect x="1" y="1" width="45" height="23.5322" rx="4" stroke="white" stroke-width="2"/>
</svg>
