<svg width="47" height="26" viewBox="0 0 47 26" fill="none" xmlns="http://www.w3.org/2000/svg">
<path d="M23.0957 20.18C22.0397 20.18 21.1037 19.994 20.2877 19.622C19.4837 19.238 18.8537 18.704 18.3977 18.02C17.9537 17.336 17.7317 16.556 17.7317 15.68C17.7317 14.612 18.2357 13.394 19.2437 12.026L22.4117 7.76C22.5077 7.652 22.5977 7.568 22.6817 7.508C22.7777 7.436 22.9037 7.4 23.0597 7.4H25.4537C25.5617 7.4 25.6517 7.442 25.7237 7.526C25.7957 7.598 25.8317 7.688 25.8317 7.796C25.8317 7.88 25.8077 7.958 25.7597 8.03L23.3297 11.342C23.4737 11.306 23.6537 11.288 23.8697 11.288C24.6017 11.324 25.3097 11.528 25.9937 11.9C26.6897 12.26 27.2537 12.764 27.6857 13.412C28.1177 14.06 28.3337 14.792 28.3337 15.608C28.3337 16.448 28.1177 17.216 27.6857 17.912C27.2537 18.608 26.6357 19.16 25.8317 19.568C25.0397 19.976 24.1277 20.18 23.0957 20.18ZM23.0597 17.588C23.6117 17.588 24.0797 17.42 24.4637 17.084C24.8477 16.736 25.0397 16.262 25.0397 15.662C25.0397 15.062 24.8477 14.594 24.4637 14.258C24.0917 13.922 23.6237 13.754 23.0597 13.754C22.4957 13.754 22.0217 13.922 21.6377 14.258C21.2537 14.594 21.0617 15.062 21.0617 15.662C21.0617 16.262 21.2537 16.736 21.6377 17.084C22.0217 17.42 22.4957 17.588 23.0597 17.588Z" fill="white"/>
<rect x="1" y="1" width="45" height="23.5322" rx="4" stroke="white" stroke-width="2"/>
</svg>
