<svg width="47" height="26" viewBox="0 0 47 26" fill="none" xmlns="http://www.w3.org/2000/svg">
<path d="M22.9416 20.198C21.8616 20.198 20.9376 20.03 20.1696 19.694C19.4016 19.346 18.8136 18.884 18.4056 18.308C18.0096 17.732 17.7996 17.108 17.7756 16.436C17.7756 16.328 17.8116 16.238 17.8836 16.166C17.9556 16.094 18.0456 16.058 18.1536 16.058H20.5656C20.8416 16.058 21.0336 16.172 21.1416 16.4C21.4656 17.204 22.0716 17.606 22.9596 17.606C23.4876 17.606 23.9316 17.444 24.2916 17.12C24.6636 16.784 24.8496 16.322 24.8496 15.734C24.8496 15.206 24.6696 14.774 24.3096 14.438C23.9616 14.102 23.5116 13.934 22.9596 13.934C22.6476 13.934 22.3956 13.976 22.2036 14.06C22.0236 14.132 21.8376 14.24 21.6456 14.384C21.4416 14.54 21.2796 14.618 21.1596 14.618H18.8016C18.6936 14.618 18.5976 14.582 18.5136 14.51C18.4416 14.426 18.4056 14.33 18.4056 14.222L19.0536 7.94C19.0656 7.772 19.1256 7.64 19.2336 7.544C19.3536 7.448 19.4916 7.4 19.6476 7.4H26.8656C26.9976 7.4 27.1056 7.442 27.1896 7.526C27.2856 7.61 27.3336 7.718 27.3336 7.85V9.542C27.3336 9.674 27.2856 9.782 27.1896 9.866C27.1056 9.95 26.9976 9.992 26.8656 9.992H21.6456L21.4116 12.314C21.7116 12.11 22.0416 11.96 22.4016 11.864C22.7616 11.756 23.2296 11.702 23.8056 11.702C24.5616 11.702 25.2756 11.876 25.9476 12.224C26.6196 12.56 27.1536 13.04 27.5496 13.664C27.9576 14.288 28.1616 15.002 28.1616 15.806C28.1616 16.658 27.9516 17.42 27.5316 18.092C27.1116 18.752 26.5056 19.268 25.7136 19.64C24.9336 20.012 24.0096 20.198 22.9416 20.198Z" fill="white"/>
<rect x="1" y="1" width="45" height="23.5322" rx="4" stroke="white" stroke-width="2"/>
</svg>
