<svg width="18" height="15" viewBox="0 0 18 15" fill="none" xmlns="http://www.w3.org/2000/svg">
<path fill-rule="evenodd" clip-rule="evenodd" d="M9 0L15.6827 11.1378C14.3703 9.03984 12.0213 7.61044 9.31777 7.50612C9.24347 7.50206 9.1686 7.5 9.09324 7.5C9.08035 7.5 9.06748 7.50006 9.05462 7.50018C9.03643 7.50006 9.01822 7.5 9 7.5C6.16367 7.5 3.6812 8.95782 2.31766 11.1372L9 0ZM2.24924 11.2513L2.31766 11.1372C2.29427 11.1746 2.27121 11.2122 2.24849 11.25L2.24924 11.2513ZM8.98136 15C6.10472 14.9935 3.59418 13.4875 2.24924 11.2513L0 15H8.98136ZM9.01863 15H8.98136L9 15L9.01863 15ZM9.05594 14.9998C6.9208 14.9806 5.19613 13.3091 5.19613 11.25C5.19613 9.19133 6.92009 7.52012 9.05462 7.50018C9.14269 7.50076 9.23042 7.50275 9.31777 7.50612C11.3656 7.61805 12.9904 9.25145 12.9904 11.25C12.9904 13.249 11.3649 14.8826 9.31646 14.994C9.22998 14.9973 9.14313 14.9992 9.05594 14.9998ZM9.09324 15H9.01863C9.03107 15 9.04351 14.9999 9.05594 14.9998C9.06836 14.9999 9.08079 15 9.09324 15ZM15.7508 11.2513L15.7515 11.25C15.7289 11.2124 15.7059 11.175 15.6827 11.1378L15.7508 11.2513ZM15.7508 11.2513L18 15H9.09324C9.16816 15 9.24259 14.998 9.31646 14.994C12.0679 14.8882 14.4524 13.41 15.7508 11.2513Z" fill="white"/>
</svg>
